<svg width="60" height="58" viewBox="0 0 60 58" fill="none" xmlns="http://www.w3.org/2000/svg">
<path d="M59.4574 9.39337L39.2554 1.02547C38.8407 0.853435 38.3865 0.757812 37.9101 0.757812H22.0899C21.6135 0.757812 21.1593 0.853435 20.7447 1.02582L0.542578 9.39337C0.214101 9.5294 0 9.84989 0 10.2053V24.3301C0 24.8156 0.393516 25.2089 0.878906 25.2089H11.5431L11.543 56.3633C11.543 56.5964 11.6355 56.8199 11.8005 56.9849C11.9652 57.1496 12.1888 57.2422 12.4219 57.2422H47.5779C48.0633 57.2422 48.4568 56.8488 48.4568 56.3633V46.6953H52.8513C53.3367 46.6953 53.7303 46.3019 53.7303 45.8164L53.7304 29.6035C53.7304 29.3705 53.6379 29.1469 53.473 28.9819L49.7001 25.2089H59.1211C59.6065 25.2089 60 24.8156 60 24.3301V10.2053C60 9.84989 59.7859 9.5294 59.4574 9.39337ZM37.9101 2.51562C38.8794 2.51562 39.668 3.30418 39.668 4.27344C39.668 9.60431 35.331 13.9414 30 13.9414C24.669 13.9414 20.332 9.60431 20.332 4.27344C20.332 3.30418 21.1206 2.51562 22.0899 2.51562H37.9101ZM51.9724 44.9375H43.1834L43.1836 29.9676L47.5781 25.5731L51.9727 29.9676L51.9724 44.9375ZM58.2422 23.4512H48.4569L48.4571 9.32103C48.4571 8.83563 48.0636 8.44212 47.5782 8.44212C47.0929 8.44212 46.6994 8.83563 46.6994 9.32103L46.6991 23.9661L41.6832 28.9819C41.5184 29.1468 41.4258 29.3703 41.4258 29.6035L41.4255 45.8164C41.4255 46.0495 41.5181 46.273 41.683 46.438C41.8478 46.6027 42.0714 46.6953 42.3045 46.6953H46.6989V55.4843H13.3008L13.3009 9.32103C13.3009 8.83554 12.9074 8.44212 12.422 8.44212C11.9366 8.44212 11.5431 8.83554 11.5431 9.32103V23.4512H1.75781V10.7926L18.6051 3.81407C18.5854 3.96453 18.5742 4.11758 18.5742 4.27332C18.5742 10.5736 23.6997 15.6991 30 15.6991C36.3003 15.6991 41.4258 10.5736 41.4258 4.27332C41.4258 4.11758 41.4146 3.96453 41.3949 3.81407L58.2422 10.7927V23.4512Z" fill="#2EBB77"/>
</svg>
