<svg width="57" height="52" viewBox="0 0 57 52" fill="none" xmlns="http://www.w3.org/2000/svg">
<path d="M55.9073 34.3346C56.1423 33.7829 56.0201 33.1526 55.5962 32.7285L49.2837 26.416C48.9412 26.0736 48.386 26.0736 48.0435 26.416C47.7011 26.7585 47.7011 27.3137 48.0435 27.6561L53.8425 33.4552L44.6007 33.2703C43.9821 33.2574 43.3795 33.5012 42.9429 33.9375L27.1371 49.7436C27.0231 49.8576 26.8376 49.8575 26.7237 49.7436L14.7231 37.7429L15.6789 35.9183C15.7622 35.7595 15.89 35.6316 16.0488 35.5485L24.5854 31.0761C25.1025 30.8051 25.4016 30.2748 25.3658 29.692C25.33 29.1093 24.9684 28.6195 24.422 28.4139L16.5694 25.4579L31.0007 11.0267C31.1146 10.9127 31.3001 10.9128 31.414 11.0267L33.4299 13.0425V18.947C32.0708 19.3303 31.0714 20.5805 31.0714 22.0606C31.0714 23.8447 32.5227 25.2961 34.3068 25.2961C36.0909 25.2961 37.5423 23.8447 37.5423 22.0606C37.5423 20.5805 36.5429 19.3303 35.1837 18.947V14.7962L45.2158 24.8281C45.5583 25.1705 46.1135 25.1705 46.4559 24.8281C46.7983 24.4857 46.7983 23.9305 46.4559 23.5881L35.1838 12.316V8.14946C35.1838 3.88555 31.715 0.416687 27.4511 0.416687C23.1873 0.416687 19.7184 3.88555 19.7184 8.14946V19.8292L14.7681 24.7796L1.97854 19.9653C1.43468 19.7606 0.841359 19.8887 0.430383 20.2995C0.0194059 20.7105 -0.108797 21.3039 0.0959296 21.8478L2.16523 27.3448C2.33585 27.7981 2.84187 28.0272 3.2948 27.8566C3.74808 27.686 3.97718 27.1803 3.80655 26.727L1.96461 21.8338L23.1939 29.8252L15.235 33.9949C14.7589 34.2442 14.3753 34.6278 14.1256 35.1043L9.95597 43.0632L5.18738 30.3955C5.01675 29.9422 4.51097 29.7132 4.05781 29.8837C3.60464 30.0543 3.37542 30.56 3.54604 31.0133L8.54433 44.2915C8.74997 44.8379 9.23974 45.1995 9.82251 45.2353C10.398 45.2726 10.9371 44.9727 11.2066 44.4548L13.8703 39.3704L25.4835 50.9837C25.8699 51.3701 26.3838 51.5829 26.9303 51.5829C27.4768 51.5829 27.9907 51.3701 28.377 50.9837L44.1831 35.1777C44.2839 35.077 44.4218 35.0218 44.5657 35.0236L54.5335 35.2231C55.1354 35.2322 55.6722 34.8862 55.9073 34.3346ZM35.7885 22.0606C35.7885 22.8777 35.1237 23.5424 34.3067 23.5424C33.4897 23.5424 32.825 22.8777 32.825 22.0606C32.825 21.5711 33.0646 21.1377 33.4316 20.8677C33.4499 21.3358 33.8341 21.7099 34.3067 21.7099C34.7793 21.7099 35.1635 21.3358 35.1819 20.8677C35.5489 21.1377 35.7885 21.5711 35.7885 22.0606ZM21.4718 8.14955C21.4718 4.85272 24.1539 2.17051 27.4508 2.17051C30.7476 2.17051 33.4298 4.85272 33.4298 8.14955V10.5624L32.6541 9.78669C31.8563 8.98895 30.5583 8.98886 29.7605 9.78669L21.4716 18.0755L21.4718 8.14955Z" fill="#2EBB77"/>
</svg>
